<?xml version="1.0" encoding="UTF-8"?><svg id="a" xmlns="http://www.w3.org/2000/svg" viewBox="0 0 26.01 26"><defs><style>.b{fill:#fff;}</style></defs><g><path class="b" d="M0,13.1c.03,7.12,5.8,12.89,12.89,12.89,7.22,0,13.12-5.84,13.11-12.99C26,5.8,20.11-.05,12.92,0,5.61,.05-.03,5.77,0,13.1Z"/><path d="M0,13.1C-.03,5.77,5.61,.05,12.92,0c7.19-.05,13.08,5.8,13.09,13,0,7.15-5.89,13-13.11,12.99C5.8,25.99,.03,20.22,0,13.1Z"/></g><rect class="b" x="13.51" y="5.19" width="2.77" height="14.82" rx="1.38" ry="1.38" transform="translate(16.52 32.04) rotate(-135)"/><rect class="b" x="7.34" y="10.81" width="2.77" height="8.23" rx="1.38" ry="1.38" transform="translate(25.45 19.32) rotate(135)"/></svg>